<svg t="1718777505488" class="icon" viewBox="0 0 1024 1024" version="1.1" xmlns="http://www.w3.org/2000/svg" p-id="1480" width="200" height="200"><path d="M926.47619 536.380952v292.571429a73.142857 73.142857 0 0 1-73.142857 73.142857H170.666667a73.142857 73.142857 0 0 1-73.142857-73.142857V536.380952h292.571428v146.285715h243.809524v-146.285715h292.571428z m-365.714285 0v73.142858h-97.52381v-73.142858h97.52381z m97.523809-438.857142a73.142857 73.142857 0 0 1 73.142857 73.142857v195.047619h48.761905v-97.52381h73.142857a73.142857 73.142857 0 0 1 73.142857 73.142857v121.904762H97.52381v-121.904762a73.142857 73.142857 0 0 1 73.142857-73.142857h73.142857v97.52381h48.761905V170.666667a73.142857 73.142857 0 0 1 73.142857-73.142857h292.571428z m0 73.142857H365.714286v97.523809h292.571428V170.666667z" p-id="1481"></path></svg>